<mxfile host="app.diagrams.net" modified="2024-01-19T09:59:01.449Z" agent="Mozilla/5.0 (Macintosh; Intel Mac OS X 10_15_7) AppleWebKit/537.36 (KHTML, like Gecko) Chrome/120.0.0.0 Safari/537.36" etag="96Mrnl7z0yoz68b2GdT2" version="22.1.21" type="github">
  <diagram name="Pagina-1" id="2P4aa3pssk4NTrGcEHPz">
    <mxGraphModel dx="954" dy="524" grid="1" gridSize="10" guides="1" tooltips="1" connect="1" arrows="1" fold="1" page="1" pageScale="1" pageWidth="827" pageHeight="1169" math="0" shadow="0">
      <root>
        <mxCell id="0" />
        <mxCell id="1" parent="0" />
        <mxCell id="F7QynkWo7MFl05mpR1yM-1" value="Deserializer" style="swimlane;fontStyle=0;childLayout=stackLayout;horizontal=1;startSize=30;horizontalStack=0;resizeParent=1;resizeParentMax=0;resizeLast=0;collapsible=1;marginBottom=0;whiteSpace=wrap;html=1;" vertex="1" parent="1">
          <mxGeometry x="39" y="112" width="230" height="60" as="geometry">
            <mxRectangle x="140" y="290" width="100" height="30" as="alternateBounds" />
          </mxGeometry>
        </mxCell>
        <mxCell id="F7QynkWo7MFl05mpR1yM-2" value="+ JSON_to_Article(String path) : Article[]" style="text;strokeColor=none;fillColor=none;align=left;verticalAlign=middle;spacingLeft=4;spacingRight=4;overflow=hidden;points=[[0,0.5],[1,0.5]];portConstraint=eastwest;rotatable=0;whiteSpace=wrap;html=1;" vertex="1" parent="F7QynkWo7MFl05mpR1yM-1">
          <mxGeometry y="30" width="230" height="30" as="geometry" />
        </mxCell>
        <mxCell id="F7QynkWo7MFl05mpR1yM-5" value="Serializer" style="swimlane;fontStyle=0;childLayout=stackLayout;horizontal=1;startSize=30;horizontalStack=0;resizeParent=1;resizeParentMax=0;resizeLast=0;collapsible=1;marginBottom=0;whiteSpace=wrap;html=1;" vertex="1" parent="1">
          <mxGeometry x="40" y="10" width="230" height="60" as="geometry" />
        </mxCell>
        <mxCell id="F7QynkWo7MFl05mpR1yM-6" value="+ Article_to_JSON(Article[] articles) : void" style="text;strokeColor=none;fillColor=none;align=left;verticalAlign=middle;spacingLeft=4;spacingRight=4;overflow=hidden;points=[[0,0.5],[1,0.5]];portConstraint=eastwest;rotatable=0;whiteSpace=wrap;html=1;" vertex="1" parent="F7QynkWo7MFl05mpR1yM-5">
          <mxGeometry y="30" width="230" height="30" as="geometry" />
        </mxCell>
        <mxCell id="F7QynkWo7MFl05mpR1yM-15" value="Article" style="swimlane;fontStyle=1;align=center;verticalAlign=top;childLayout=stackLayout;horizontal=1;startSize=26;horizontalStack=0;resizeParent=1;resizeParentMax=0;resizeLast=0;collapsible=1;marginBottom=0;whiteSpace=wrap;html=1;" vertex="1" parent="1">
          <mxGeometry x="780" y="230" width="190" height="210" as="geometry" />
        </mxCell>
        <mxCell id="F7QynkWo7MFl05mpR1yM-16" value="- title: String&lt;br&gt;- body: String&lt;br&gt;- source: String" style="text;strokeColor=none;fillColor=none;align=left;verticalAlign=top;spacingLeft=4;spacingRight=4;overflow=hidden;rotatable=0;points=[[0,0.5],[1,0.5]];portConstraint=eastwest;whiteSpace=wrap;html=1;" vertex="1" parent="F7QynkWo7MFl05mpR1yM-15">
          <mxGeometry y="26" width="190" height="54" as="geometry" />
        </mxCell>
        <mxCell id="F7QynkWo7MFl05mpR1yM-17" value="" style="line;strokeWidth=1;fillColor=none;align=left;verticalAlign=middle;spacingTop=-1;spacingLeft=3;spacingRight=3;rotatable=0;labelPosition=right;points=[];portConstraint=eastwest;strokeColor=inherit;" vertex="1" parent="F7QynkWo7MFl05mpR1yM-15">
          <mxGeometry y="80" width="190" height="8" as="geometry" />
        </mxCell>
        <mxCell id="F7QynkWo7MFl05mpR1yM-18" value="+ getTitle(): String&lt;br&gt;+ getBody(): String&lt;br&gt;+ getSource(): String&lt;br&gt;+ setTitle(String title): void&lt;br&gt;+ setBody(String body): void&lt;br&gt;+ setSource(String source): void&lt;br&gt;+ toString(): String" style="text;strokeColor=none;fillColor=none;align=left;verticalAlign=top;spacingLeft=4;spacingRight=4;overflow=hidden;rotatable=0;points=[[0,0.5],[1,0.5]];portConstraint=eastwest;whiteSpace=wrap;html=1;" vertex="1" parent="F7QynkWo7MFl05mpR1yM-15">
          <mxGeometry y="88" width="190" height="122" as="geometry" />
        </mxCell>
        <mxCell id="F7QynkWo7MFl05mpR1yM-20" value="App" style="swimlane;fontStyle=1;align=center;verticalAlign=top;childLayout=stackLayout;horizontal=1;startSize=26;horizontalStack=0;resizeParent=1;resizeParentMax=0;resizeLast=0;collapsible=1;marginBottom=0;whiteSpace=wrap;html=1;" vertex="1" parent="1">
          <mxGeometry x="160" y="210" width="160" height="50" as="geometry" />
        </mxCell>
        <mxCell id="F7QynkWo7MFl05mpR1yM-23" value="+ main(String[] args): void" style="text;strokeColor=none;fillColor=none;align=left;verticalAlign=top;spacingLeft=4;spacingRight=4;overflow=hidden;rotatable=0;points=[[0,0.5],[1,0.5]];portConstraint=eastwest;whiteSpace=wrap;html=1;" vertex="1" parent="F7QynkWo7MFl05mpR1yM-20">
          <mxGeometry y="26" width="160" height="24" as="geometry" />
        </mxCell>
        <mxCell id="F7QynkWo7MFl05mpR1yM-24" value="CSV" style="swimlane;fontStyle=1;align=center;verticalAlign=top;childLayout=stackLayout;horizontal=1;startSize=26;horizontalStack=0;resizeParent=1;resizeParentMax=0;resizeLast=0;collapsible=1;marginBottom=0;whiteSpace=wrap;html=1;" vertex="1" parent="1">
          <mxGeometry x="280" y="450" width="210" height="110" as="geometry" />
        </mxCell>
        <mxCell id="F7QynkWo7MFl05mpR1yM-25" value="- path_file: String&lt;br&gt;- articles: ArrayList&amp;lt;Article&amp;gt;" style="text;strokeColor=none;fillColor=none;align=left;verticalAlign=top;spacingLeft=4;spacingRight=4;overflow=hidden;rotatable=0;points=[[0,0.5],[1,0.5]];portConstraint=eastwest;whiteSpace=wrap;html=1;" vertex="1" parent="F7QynkWo7MFl05mpR1yM-24">
          <mxGeometry y="26" width="210" height="44" as="geometry" />
        </mxCell>
        <mxCell id="F7QynkWo7MFl05mpR1yM-26" value="" style="line;strokeWidth=1;fillColor=none;align=left;verticalAlign=middle;spacingTop=-1;spacingLeft=3;spacingRight=3;rotatable=0;labelPosition=right;points=[];portConstraint=eastwest;strokeColor=inherit;" vertex="1" parent="F7QynkWo7MFl05mpR1yM-24">
          <mxGeometry y="70" width="210" height="8" as="geometry" />
        </mxCell>
        <mxCell id="F7QynkWo7MFl05mpR1yM-27" value="+ getArticles(): Article[]" style="text;strokeColor=none;fillColor=none;align=left;verticalAlign=top;spacingLeft=4;spacingRight=4;overflow=hidden;rotatable=0;points=[[0,0.5],[1,0.5]];portConstraint=eastwest;whiteSpace=wrap;html=1;" vertex="1" parent="F7QynkWo7MFl05mpR1yM-24">
          <mxGeometry y="78" width="210" height="32" as="geometry" />
        </mxCell>
        <mxCell id="F7QynkWo7MFl05mpR1yM-28" value="TheGuardian" style="swimlane;fontStyle=1;align=center;verticalAlign=top;childLayout=stackLayout;horizontal=1;startSize=26;horizontalStack=0;resizeParent=1;resizeParentMax=0;resizeLast=0;collapsible=1;marginBottom=0;whiteSpace=wrap;html=1;" vertex="1" parent="1">
          <mxGeometry x="525" y="450" width="240" height="180" as="geometry" />
        </mxCell>
        <mxCell id="F7QynkWo7MFl05mpR1yM-29" value="- GUARDIAN_URL: String&lt;br&gt;+ articles: ArrayList&amp;lt;Article&amp;gt;&lt;br&gt;- api_key: String&lt;br&gt;- query: String&lt;br&gt;- show_filed: String" style="text;strokeColor=none;fillColor=none;align=left;verticalAlign=top;spacingLeft=4;spacingRight=4;overflow=hidden;rotatable=0;points=[[0,0.5],[1,0.5]];portConstraint=eastwest;whiteSpace=wrap;html=1;" vertex="1" parent="F7QynkWo7MFl05mpR1yM-28">
          <mxGeometry y="26" width="240" height="84" as="geometry" />
        </mxCell>
        <mxCell id="F7QynkWo7MFl05mpR1yM-30" value="" style="line;strokeWidth=1;fillColor=none;align=left;verticalAlign=middle;spacingTop=-1;spacingLeft=3;spacingRight=3;rotatable=0;labelPosition=right;points=[];portConstraint=eastwest;strokeColor=inherit;" vertex="1" parent="F7QynkWo7MFl05mpR1yM-28">
          <mxGeometry y="110" width="240" height="8" as="geometry" />
        </mxCell>
        <mxCell id="F7QynkWo7MFl05mpR1yM-31" value="+ createUrl (String q): String&lt;br&gt;+ getArticles (): Article[]&lt;br&gt;+ readableFormat (String response): String" style="text;strokeColor=none;fillColor=none;align=left;verticalAlign=top;spacingLeft=4;spacingRight=4;overflow=hidden;rotatable=0;points=[[0,0.5],[1,0.5]];portConstraint=eastwest;whiteSpace=wrap;html=1;" vertex="1" parent="F7QynkWo7MFl05mpR1yM-28">
          <mxGeometry y="118" width="240" height="62" as="geometry" />
        </mxCell>
        <mxCell id="F7QynkWo7MFl05mpR1yM-32" value="Downloader" style="swimlane;fontStyle=1;align=center;verticalAlign=top;childLayout=stackLayout;horizontal=1;startSize=26;horizontalStack=0;resizeParent=1;resizeParentMax=0;resizeLast=0;collapsible=1;marginBottom=0;whiteSpace=wrap;html=1;" vertex="1" parent="1">
          <mxGeometry x="360" y="50" width="230" height="82" as="geometry" />
        </mxCell>
        <mxCell id="F7QynkWo7MFl05mpR1yM-35" value="+ downloadGuardian (String query): void&lt;br&gt;+ downloadCSV (): void&lt;br&gt;+ downloadAll (String query): void" style="text;strokeColor=none;fillColor=none;align=left;verticalAlign=top;spacingLeft=4;spacingRight=4;overflow=hidden;rotatable=0;points=[[0,0.5],[1,0.5]];portConstraint=eastwest;whiteSpace=wrap;html=1;" vertex="1" parent="F7QynkWo7MFl05mpR1yM-32">
          <mxGeometry y="26" width="230" height="56" as="geometry" />
        </mxCell>
        <mxCell id="F7QynkWo7MFl05mpR1yM-36" value="WordCounter" style="swimlane;fontStyle=1;align=center;verticalAlign=top;childLayout=stackLayout;horizontal=1;startSize=26;horizontalStack=0;resizeParent=1;resizeParentMax=0;resizeLast=0;collapsible=1;marginBottom=0;whiteSpace=wrap;html=1;" vertex="1" parent="1">
          <mxGeometry x="20" y="320" width="240" height="150" as="geometry" />
        </mxCell>
        <mxCell id="F7QynkWo7MFl05mpR1yM-37" value="- STOPLIST_FILE: String&lt;br&gt;+ stopList: List&amp;lt;String&amp;gt;" style="text;strokeColor=none;fillColor=none;align=left;verticalAlign=top;spacingLeft=4;spacingRight=4;overflow=hidden;rotatable=0;points=[[0,0.5],[1,0.5]];portConstraint=eastwest;whiteSpace=wrap;html=1;" vertex="1" parent="F7QynkWo7MFl05mpR1yM-36">
          <mxGeometry y="26" width="240" height="44" as="geometry" />
        </mxCell>
        <mxCell id="F7QynkWo7MFl05mpR1yM-38" value="" style="line;strokeWidth=1;fillColor=none;align=left;verticalAlign=middle;spacingTop=-1;spacingLeft=3;spacingRight=3;rotatable=0;labelPosition=right;points=[];portConstraint=eastwest;strokeColor=inherit;" vertex="1" parent="F7QynkWo7MFl05mpR1yM-36">
          <mxGeometry y="70" width="240" height="8" as="geometry" />
        </mxCell>
        <mxCell id="F7QynkWo7MFl05mpR1yM-39" value="+ getFrequency(): void&lt;br&gt;+ getFrequency (Article[] articles): void&lt;br&gt;- getWords (Article article): Set&amp;lt;String&amp;gt;&lt;br&gt;- loadStopList(): List&amp;lt;String&amp;gt;" style="text;strokeColor=none;fillColor=none;align=left;verticalAlign=top;spacingLeft=4;spacingRight=4;overflow=hidden;rotatable=0;points=[[0,0.5],[1,0.5]];portConstraint=eastwest;whiteSpace=wrap;html=1;" vertex="1" parent="F7QynkWo7MFl05mpR1yM-36">
          <mxGeometry y="78" width="240" height="72" as="geometry" />
        </mxCell>
        <mxCell id="F7QynkWo7MFl05mpR1yM-54" value="&lt;p style=&quot;margin:0px;margin-top:4px;text-align:center;&quot;&gt;&lt;i&gt;&amp;lt;&amp;lt;Interface&amp;gt;&amp;gt;&lt;/i&gt;&lt;br&gt;&lt;b&gt;SourceInterface&lt;/b&gt;&lt;/p&gt;&lt;hr size=&quot;1&quot;&gt;&lt;p style=&quot;margin:0px;margin-left:4px;&quot;&gt;&lt;/p&gt;&lt;p style=&quot;margin:0px;margin-left:4px;&quot;&gt;+ getArticles(): Article[]&amp;nbsp;&lt;br&gt;&lt;/p&gt;" style="verticalAlign=top;align=left;overflow=fill;fontSize=12;fontFamily=Helvetica;html=1;whiteSpace=wrap;" vertex="1" parent="1">
          <mxGeometry x="400" y="230" width="190" height="70" as="geometry" />
        </mxCell>
        <mxCell id="F7QynkWo7MFl05mpR1yM-57" style="edgeStyle=orthogonalEdgeStyle;rounded=0;orthogonalLoop=1;jettySize=auto;html=1;entryX=1;entryY=0.75;entryDx=0;entryDy=0;" edge="1" parent="1" source="F7QynkWo7MFl05mpR1yM-16" target="F7QynkWo7MFl05mpR1yM-54">
          <mxGeometry relative="1" as="geometry" />
        </mxCell>
        <mxCell id="F7QynkWo7MFl05mpR1yM-58" value="&lt;span style=&quot;background-color: rgb(0, 0, 0);&quot;&gt;&lt;font color=&quot;#ffffff&quot;&gt;fetches&lt;/font&gt;&lt;/span&gt;" style="edgeLabel;html=1;align=center;verticalAlign=middle;resizable=0;points=[];" vertex="1" connectable="0" parent="F7QynkWo7MFl05mpR1yM-57">
          <mxGeometry x="-0.0027" y="4" relative="1" as="geometry">
            <mxPoint x="-2" as="offset" />
          </mxGeometry>
        </mxCell>
        <mxCell id="F7QynkWo7MFl05mpR1yM-59" value="1 .. *" style="edgeLabel;html=1;align=center;verticalAlign=middle;resizable=0;points=[];fontColor=#FFFFFF;labelBackgroundColor=#000000;" vertex="1" connectable="0" parent="F7QynkWo7MFl05mpR1yM-57">
          <mxGeometry x="-0.8917" y="2" relative="1" as="geometry">
            <mxPoint x="-5" y="-2" as="offset" />
          </mxGeometry>
        </mxCell>
        <mxCell id="F7QynkWo7MFl05mpR1yM-62" value="" style="endArrow=block;dashed=1;endFill=0;endSize=12;html=1;rounded=0;exitX=0.5;exitY=0;exitDx=0;exitDy=0;entryX=0.387;entryY=1.032;entryDx=0;entryDy=0;entryPerimeter=0;" edge="1" parent="1" source="F7QynkWo7MFl05mpR1yM-24" target="F7QynkWo7MFl05mpR1yM-54">
          <mxGeometry width="160" relative="1" as="geometry">
            <mxPoint x="360" y="360" as="sourcePoint" />
            <mxPoint x="520" y="360" as="targetPoint" />
          </mxGeometry>
        </mxCell>
        <mxCell id="F7QynkWo7MFl05mpR1yM-63" value="" style="endArrow=block;dashed=1;endFill=0;endSize=12;html=1;rounded=0;exitX=0.34;exitY=-0.024;exitDx=0;exitDy=0;exitPerimeter=0;entryX=0.634;entryY=1.045;entryDx=0;entryDy=0;entryPerimeter=0;" edge="1" parent="1" source="F7QynkWo7MFl05mpR1yM-28" target="F7QynkWo7MFl05mpR1yM-54">
          <mxGeometry width="160" relative="1" as="geometry">
            <mxPoint x="570" y="350" as="sourcePoint" />
            <mxPoint x="730" y="350" as="targetPoint" />
          </mxGeometry>
        </mxCell>
        <mxCell id="F7QynkWo7MFl05mpR1yM-64" value="" style="endArrow=diamondThin;endFill=0;endSize=24;html=1;rounded=0;exitX=-0.011;exitY=-0.013;exitDx=0;exitDy=0;exitPerimeter=0;entryX=1.013;entryY=1.009;entryDx=0;entryDy=0;entryPerimeter=0;" edge="1" parent="1" source="F7QynkWo7MFl05mpR1yM-16" target="F7QynkWo7MFl05mpR1yM-35">
          <mxGeometry width="160" relative="1" as="geometry">
            <mxPoint x="580" y="190" as="sourcePoint" />
            <mxPoint x="740" y="190" as="targetPoint" />
          </mxGeometry>
        </mxCell>
        <mxCell id="F7QynkWo7MFl05mpR1yM-72" value="Use" style="endArrow=open;endSize=12;dashed=1;html=1;rounded=0;exitX=-0.009;exitY=0.321;exitDx=0;exitDy=0;exitPerimeter=0;entryX=0.996;entryY=-0.033;entryDx=0;entryDy=0;entryPerimeter=0;" edge="1" parent="1" source="F7QynkWo7MFl05mpR1yM-35" target="F7QynkWo7MFl05mpR1yM-6">
          <mxGeometry width="160" relative="1" as="geometry">
            <mxPoint x="310" y="180" as="sourcePoint" />
            <mxPoint x="310" y="90" as="targetPoint" />
          </mxGeometry>
        </mxCell>
        <mxCell id="F7QynkWo7MFl05mpR1yM-73" value="Use" style="endArrow=open;endSize=12;dashed=1;html=1;rounded=0;exitX=0;exitY=0.5;exitDx=0;exitDy=0;entryX=0.996;entryY=-0.033;entryDx=0;entryDy=0;entryPerimeter=0;" edge="1" parent="1" source="F7QynkWo7MFl05mpR1yM-35" target="F7QynkWo7MFl05mpR1yM-2">
          <mxGeometry width="160" relative="1" as="geometry">
            <mxPoint x="360" y="132" as="sourcePoint" />
            <mxPoint x="271" y="77" as="targetPoint" />
          </mxGeometry>
        </mxCell>
        <mxCell id="F7QynkWo7MFl05mpR1yM-74" value="Use" style="endArrow=open;endSize=12;dashed=1;html=1;rounded=0;exitX=0.919;exitY=-0.02;exitDx=0;exitDy=0;entryX=0.13;entryY=1.018;entryDx=0;entryDy=0;entryPerimeter=0;exitPerimeter=0;" edge="1" parent="1" source="F7QynkWo7MFl05mpR1yM-20" target="F7QynkWo7MFl05mpR1yM-35">
          <mxGeometry width="160" relative="1" as="geometry">
            <mxPoint x="370" y="114" as="sourcePoint" />
            <mxPoint x="278" y="151" as="targetPoint" />
          </mxGeometry>
        </mxCell>
        <mxCell id="F7QynkWo7MFl05mpR1yM-75" value="Use" style="endArrow=open;endSize=12;dashed=1;html=1;rounded=0;exitX=0.475;exitY=1.125;exitDx=0;exitDy=0;entryX=0.75;entryY=0;entryDx=0;entryDy=0;exitPerimeter=0;" edge="1" parent="1" source="F7QynkWo7MFl05mpR1yM-23" target="F7QynkWo7MFl05mpR1yM-36">
          <mxGeometry width="160" relative="1" as="geometry">
            <mxPoint x="317" y="219" as="sourcePoint" />
            <mxPoint x="400" y="143" as="targetPoint" />
          </mxGeometry>
        </mxCell>
      </root>
    </mxGraphModel>
  </diagram>
</mxfile>
